<svg width="210" height="400" viewBox="0 0 210 400" fill="none" xmlns="http://www.w3.org/2000/svg">
<path d="M178.687 166.766C219.577 125.876 219.577 59.6372 178.687 18.7469C171.61 11.6698 163.746 5.84153 155.374 1.16968C148.944 -2.39203 141.682 2.64986 141.682 9.9583V81.0074C141.682 83.7828 140.572 86.4656 138.629 88.4084L112.078 114.959C108.008 119.03 101.347 119.03 97.2763 114.959L70.7253 88.4084C68.7826 86.4656 67.6725 83.7828 67.6725 81.0074L67.6724 9.9583C67.6724 2.64986 60.364 -2.34579 53.9807 1.16966C45.6084 5.84151 37.7449 11.6698 30.6677 18.7469C-10.2226 59.6372 -10.2226 125.876 30.6677 166.766C39.5026 175.601 49.5864 182.539 60.2715 187.581V355.583C60.2715 367.332 64.9433 378.664 73.2694 386.991C90.6154 404.336 118.739 404.336 136.085 386.991C144.411 378.664 149.083 367.332 149.083 355.583L149.083 187.581C159.814 182.585 169.852 175.601 178.687 166.766ZM115.779 355.49C109.627 361.642 99.7278 361.642 93.5758 355.49C87.4237 349.338 87.4237 339.439 93.5758 333.287C99.7278 327.135 109.627 327.135 115.779 333.287C121.931 339.439 121.931 349.338 115.779 355.49Z" fill="url(#paint0_linear_102_34)"/>
<defs>
<linearGradient id="paint0_linear_102_34" x1="104.677" y1="0" x2="104.677" y2="400" gradientUnits="userSpaceOnUse">
<stop stop-color="#E24460"/>
<stop offset="1" stop-color="#7F52FF"/>
</linearGradient>
</defs>
</svg>
